<?xml version="1.0" encoding="utf-8"?>
<!-- Generator: Adobe Illustrator 22.0.1, SVG Export Plug-In . SVG Version: 6.00 Build 0)  -->
<svg version="1.1" id="Layer_1" xmlns="http://www.w3.org/2000/svg" xmlns:xlink="http://www.w3.org/1999/xlink" x="0px" y="0px"
	 viewBox="0 0 87.2 14" style="enable-background:new 0 0 87.2 14;" xml:space="preserve">
<style type="text/css">
	.st0{fill:#F29F05;}
</style>
<polygon class="st0" points="7.6,13 11.3,6.6 10.1,4.5 7.6,8.7 3.9,2.4 13.7,2.4 14.9,0.3 0.3,0.3 "/>
<polygon class="st0" points="19.8,13 18.6,10.9 13.7,10.9 18.6,2.4 17.4,0.3 10.1,13 "/>
<g>
	<path class="st0" d="M25.3,3.4c1.8,0,3.5,1.4,3.5,3.8c0,2.4-1.6,3.8-3.5,3.8c-1.8,0-3.4-1.4-3.4-3.8C21.8,4.8,23.5,3.4,25.3,3.4z
		 M25.3,9.7c1.1,0,1.7-1,1.7-2.4c0-1.5-0.7-2.4-1.7-2.4s-1.7,1-1.7,2.4C23.6,8.7,24.2,9.7,25.3,9.7z"/>
	<path class="st0" d="M30.4,0.4h1.7v2.7l0,1.2c0.6-0.5,1.4-0.9,2.1-0.9C36,3.4,37,4.9,37,7.1c0,2.5-1.5,3.9-3.1,3.9
		c-0.7,0-1.4-0.3-2-0.9h0l-0.1,0.7h-1.3V0.4z M33.6,9.7c1,0,1.7-0.9,1.7-2.5c0-1.4-0.5-2.3-1.6-2.3c-0.5,0-1,0.3-1.6,0.8V9
		C32.6,9.5,33.1,9.7,33.6,9.7z"/>
	<path class="st0" d="M38.8,3.6h1.7v7.6c0,1.5-0.6,2.7-2.3,2.7c-0.5,0-0.9-0.1-1.2-0.2l0.3-1.3c0.2,0.1,0.4,0.1,0.6,0.1
		c0.7,0,0.8-0.5,0.8-1.3V3.6z M38.6,1.4c0-0.6,0.5-1,1-1c0.6,0,1.1,0.4,1.1,1c0,0.6-0.5,1-1.1,1C39,2.3,38.6,1.9,38.6,1.4z"/>
	<path class="st0" d="M45.5,3.4c2,0,3,1.4,3,3.4c0,0.3,0,0.6-0.1,0.8h-4.6C44,9,44.8,9.7,46,9.7c0.6,0,1.2-0.2,1.7-0.5l0.6,1.1
		c-0.7,0.5-1.6,0.8-2.5,0.8c-2,0-3.6-1.4-3.6-3.8C42.2,4.9,43.8,3.4,45.5,3.4z M47,6.6c0-1.2-0.5-1.8-1.5-1.8
		c-0.9,0-1.6,0.6-1.7,1.8H47z"/>
	<path class="st0" d="M53.3,3.4c0.9,0,1.6,0.4,2.1,0.8l-0.8,1.1c-0.4-0.3-0.8-0.5-1.2-0.5c-1.2,0-2,1-2,2.4c0,1.4,0.8,2.4,1.9,2.4
		c0.6,0,1.1-0.3,1.5-0.6l0.7,1.1c-0.7,0.6-1.6,0.9-2.4,0.9c-2,0-3.5-1.4-3.5-3.8C49.7,4.8,51.4,3.4,53.3,3.4z"/>
	<path class="st0" d="M57.2,5h-1V3.7l1.1-0.1l0.2-2h1.4v2h1.8V5h-1.8v3.5c0,0.9,0.3,1.3,1,1.3c0.3,0,0.5-0.1,0.8-0.2l0.3,1.3
		c-0.4,0.1-0.9,0.3-1.5,0.3c-1.7,0-2.3-1.1-2.3-2.6V5z"/>
	<path class="st0" d="M62.4,9c0.7,0.5,1.3,0.8,2,0.8c0.8,0,1.2-0.4,1.2-0.9c0-0.6-0.8-0.9-1.6-1.2c-1-0.4-2-0.9-2-2.1
		c0-1.3,1-2.2,2.6-2.2c1,0,1.8,0.4,2.4,0.9l-0.8,1c-0.5-0.4-1-0.6-1.6-0.6c-0.7,0-1.1,0.3-1.1,0.8c0,0.6,0.7,0.8,1.5,1.1
		c1,0.4,2.1,0.8,2.1,2.2c0,1.2-1,2.2-2.8,2.2c-1,0-2-0.4-2.7-1L62.4,9z"/>
</g>
</svg>
